<svg xmlns="http://www.w3.org/2000/svg" xmlns:xlink="http://www.w3.org/1999/xlink" width="800" zoomAndPan="magnify" viewBox="0 0 600 599.999999" height="800" preserveAspectRatio="xMidYMid meet" version="1.0"><defs><clipPath id="8190d83ac1"><path d="M 171 0 L 600 0 L 600 600 L 171 600 Z M 171 0 " clip-rule="nonzero"/></clipPath><clipPath id="e013ffeeab"><path d="M 116.167969 -177.871094 L 702.371094 -307.984375 L 921.320312 678.4375 L 335.117188 808.554688 Z M 116.167969 -177.871094 " clip-rule="nonzero"/></clipPath><clipPath id="dc8d7f64e8"><path d="M 116.167969 -177.871094 L 702.371094 -307.984375 L 921.320312 678.4375 L 335.117188 808.554688 Z M 116.167969 -177.871094 " clip-rule="nonzero"/></clipPath><clipPath id="0bb1ab5769"><path d="M 520 0 L 600 0 L 600 170 L 520 170 Z M 520 0 " clip-rule="nonzero"/></clipPath><clipPath id="61e65ee88f"><path d="M 639.632812 -259.753906 L 900.183594 -26.550781 L 708.796875 187.28125 L 448.246094 -45.925781 Z M 639.632812 -259.753906 " clip-rule="nonzero"/></clipPath><clipPath id="46b45cf778"><path d="M 639.632812 -259.753906 L 900.183594 -26.550781 L 708.796875 187.28125 L 448.246094 -45.925781 Z M 639.632812 -259.753906 " clip-rule="nonzero"/></clipPath><clipPath id="0abc14f850"><path d="M 639.632812 -259.753906 L 900.183594 -26.550781 L 708.796875 187.28125 L 448.246094 -45.925781 Z M 639.632812 -259.753906 " clip-rule="nonzero"/></clipPath><clipPath id="463dfea163"><path d="M 591 419 L 600 419 L 600 600 L 591 600 Z M 591 419 " clip-rule="nonzero"/></clipPath><clipPath id="7ec703283c"><path d="M 710.148438 317.386719 L 970.699219 550.59375 L 779.3125 764.421875 L 518.761719 531.21875 Z M 710.148438 317.386719 " clip-rule="nonzero"/></clipPath><clipPath id="bca5b53769"><path d="M 710.148438 317.386719 L 970.699219 550.59375 L 779.3125 764.421875 L 518.761719 531.21875 Z M 710.148438 317.386719 " clip-rule="nonzero"/></clipPath><clipPath id="661fcb5696"><path d="M 710.148438 317.386719 L 970.699219 550.59375 L 779.3125 764.421875 L 518.761719 531.21875 Z M 710.148438 317.386719 " clip-rule="nonzero"/></clipPath><clipPath id="142b1cf064"><path d="M 568 576 L 600 576 L 600 600 L 568 600 Z M 568 576 " clip-rule="nonzero"/></clipPath><clipPath id="bdecbc8304"><path d="M 687.65625 475.132812 L 948.203125 708.335938 L 756.816406 922.167969 L 496.265625 688.960938 Z M 687.65625 475.132812 " clip-rule="nonzero"/></clipPath><clipPath id="1b74bba1f3"><path d="M 687.65625 475.132812 L 948.203125 708.335938 L 756.816406 922.167969 L 496.265625 688.960938 Z M 687.65625 475.132812 " clip-rule="nonzero"/></clipPath><clipPath id="58f51245c5"><path d="M 687.65625 475.132812 L 948.203125 708.335938 L 756.816406 922.167969 L 496.265625 688.960938 Z M 687.65625 475.132812 " clip-rule="nonzero"/></clipPath><clipPath id="3fec62503c"><path d="M 282 0 L 546 0 L 546 131 L 282 131 Z M 282 0 " clip-rule="nonzero"/></clipPath><clipPath id="46f98339f2"><path d="M 359.0625 -224.101562 L 613.742188 -62.847656 L 482.160156 144.976562 L 227.476562 -16.28125 Z M 359.0625 -224.101562 " clip-rule="nonzero"/></clipPath><clipPath id="79025abcff"><path d="M 359.0625 -224.101562 L 613.742188 -62.847656 L 482.160156 144.976562 L 227.476562 -16.28125 Z M 359.0625 -224.101562 " clip-rule="nonzero"/></clipPath><clipPath id="e13604063e"><path d="M 359.0625 -224.101562 L 613.742188 -62.847656 L 482.160156 144.976562 L 227.476562 -16.28125 Z M 359.0625 -224.101562 " clip-rule="nonzero"/></clipPath><clipPath id="161df31309"><path d="M 394 13 L 600 13 L 600 285 L 394 285 Z M 394 13 " clip-rule="nonzero"/></clipPath><clipPath id="86df561871"><path d="M 471.105469 -69.71875 L 725.789062 91.539062 L 594.203125 299.359375 L 339.519531 138.105469 Z M 471.105469 -69.71875 " clip-rule="nonzero"/></clipPath><clipPath id="6c02aa80e6"><path d="M 471.105469 -69.71875 L 725.789062 91.539062 L 594.203125 299.359375 L 339.519531 138.105469 Z M 471.105469 -69.71875 " clip-rule="nonzero"/></clipPath><clipPath id="4ca5f86fad"><path d="M 471.105469 -69.71875 L 725.789062 91.539062 L 594.203125 299.359375 L 339.519531 138.105469 Z M 471.105469 -69.71875 " clip-rule="nonzero"/></clipPath><clipPath id="c0c6ab3e1c"><path d="M 453 198 L 600 198 L 600 470 L 453 470 Z M 453 198 " clip-rule="nonzero"/></clipPath><clipPath id="550aa98c83"><path d="M 529.988281 115.34375 L 784.671875 276.601562 L 653.085938 484.421875 L 398.402344 323.164062 Z M 529.988281 115.34375 " clip-rule="nonzero"/></clipPath><clipPath id="66a9e6f603"><path d="M 529.988281 115.34375 L 784.671875 276.601562 L 653.085938 484.421875 L 398.402344 323.164062 Z M 529.988281 115.34375 " clip-rule="nonzero"/></clipPath><clipPath id="be4f34e99e"><path d="M 529.988281 115.34375 L 784.671875 276.601562 L 653.085938 484.421875 L 398.402344 323.164062 Z M 529.988281 115.34375 " clip-rule="nonzero"/></clipPath><clipPath id="b60a340cb1"><path d="M 423 337 L 600 337 L 600 600 L 423 600 Z M 423 337 " clip-rule="nonzero"/></clipPath><clipPath id="d1c6e970b1"><path d="M 500.460938 254.617188 L 755.140625 415.875 L 623.558594 623.695312 L 368.875 462.4375 Z M 500.460938 254.617188 " clip-rule="nonzero"/></clipPath><clipPath id="887dd95636"><path d="M 500.460938 254.617188 L 755.140625 415.875 L 623.558594 623.695312 L 368.875 462.4375 Z M 500.460938 254.617188 " clip-rule="nonzero"/></clipPath><clipPath id="92e975e28d"><path d="M 500.460938 254.617188 L 755.140625 415.875 L 623.558594 623.695312 L 368.875 462.4375 Z M 500.460938 254.617188 " clip-rule="nonzero"/></clipPath><clipPath id="cb482b2644"><path d="M 426 474 L 600 474 L 600 600 L 426 600 Z M 426 474 " clip-rule="nonzero"/></clipPath><clipPath id="ebffd4e891"><path d="M 503.738281 391.371094 L 758.421875 552.628906 L 626.835938 760.449219 L 372.152344 599.195312 Z M 503.738281 391.371094 " clip-rule="nonzero"/></clipPath><clipPath id="3bda27ed64"><path d="M 503.738281 391.371094 L 758.421875 552.628906 L 626.835938 760.449219 L 372.152344 599.195312 Z M 503.738281 391.371094 " clip-rule="nonzero"/></clipPath><clipPath id="114142da10"><path d="M 503.738281 391.371094 L 758.421875 552.628906 L 626.835938 760.449219 L 372.152344 599.195312 Z M 503.738281 391.371094 " clip-rule="nonzero"/></clipPath></defs><g clip-path="url(#8190d83ac1)"><g clip-path="url(#e013ffeeab)"><g clip-path="url(#dc8d7f64e8)"><path fill="#ffb64c" d="M 336.804688 564.40625 L 298.527344 545.238281 C 360.953125 420.527344 358.617188 303.167969 291.867188 196.597656 C 241.472656 116.332031 172.472656 73.015625 171.753906 72.558594 L 194.199219 36.195312 C 197.320312 38.1875 272.367188 85.527344 327.871094 173.949219 C 379.773438 256.359375 423.3125 391.199219 336.804688 564.40625 Z M 512.136719 68.640625 C 432.132812 -53.980469 322.390625 -113.644531 317.71875 -116.117188 L 290.183594 -64.589844 C 291.144531 -63.976562 392.984375 -8.339844 464.601562 102.515625 C 559.410156 249.101562 559.714844 419.554688 465.542969 609.324219 L 517.707031 635.316406 C 647.777344 373.171875 586.464844 182.40625 512.136719 68.640625 Z M 706.730469 5.214844 C 612.445312 -161.304688 478.117188 -251.84375 472.550781 -255.5625 L 429.621094 -190.707031 C 430.824219 -189.941406 554.015625 -106.839844 639.152344 43.542969 C 752.433594 243.625 745.574219 461.699219 618.410156 691.410156 L 686.382812 729.171875 C 862.066406 411.484375 794.53125 160.167969 706.730469 5.214844 Z M 706.730469 5.214844 " fill-opacity="1" fill-rule="nonzero"/></g></g></g><g clip-path="url(#0bb1ab5769)"><g clip-path="url(#61e65ee88f)"><g clip-path="url(#46b45cf778)"><g clip-path="url(#0abc14f850)"><path fill="#000000" d="M 720.761719 165.15625 C 700.277344 179.652344 682.726562 155.820312 664.660156 135.355469 C 646.773438 113.003906 629.699219 93.496094 612.816406 71.050781 C 595.792969 49.207031 579.6875 25.675781 562.089844 2.261719 C 545.347656 -21.441406 526.367188 -46.554688 521.511719 -77.722656 C 516.78125 -108.445312 533.238281 -140.816406 587.164062 -153.0625 C 613.363281 -159.140625 648 -159.914062 684.4375 -154.386719 C 720.664062 -148.914062 758.390625 -137.609375 785.0625 -121.464844 C 812.226562 -105.277344 824.675781 -85.613281 824.515625 -61.578125 C 824.664062 -37.664062 812.890625 -8.234375 799 23.261719 C 768.652344 87.722656 740.378906 151.929688 720.761719 165.15625 Z M 720.761719 165.15625 " fill-opacity="1" fill-rule="nonzero"/></g></g></g></g><g clip-path="url(#463dfea163)"><g clip-path="url(#7ec703283c)"><g clip-path="url(#bca5b53769)"><g clip-path="url(#661fcb5696)"><path fill="#000000" d="M 791.277344 742.300781 C 770.792969 756.796875 753.242188 732.960938 735.175781 712.5 C 717.289062 690.148438 700.214844 670.640625 683.332031 648.195312 C 666.308594 626.351562 650.203125 602.820312 632.605469 579.40625 C 615.863281 555.699219 596.882812 530.589844 592.027344 499.421875 C 587.296875 468.699219 603.753906 436.324219 657.679688 424.082031 C 683.878906 418.003906 718.515625 417.226562 754.953125 422.757812 C 791.179688 428.226562 828.90625 439.535156 855.578125 455.679688 C 882.742188 471.867188 895.191406 491.53125 895.03125 515.566406 C 895.179688 539.480469 883.40625 568.90625 869.515625 600.40625 C 839.167969 664.867188 810.894531 729.074219 791.277344 742.300781 Z M 791.277344 742.300781 " fill-opacity="1" fill-rule="nonzero"/></g></g></g></g><g clip-path="url(#142b1cf064)"><g clip-path="url(#bdecbc8304)"><g clip-path="url(#1b74bba1f3)"><g clip-path="url(#58f51245c5)"><path fill="#000000" d="M 768.78125 900.046875 C 748.296875 914.539062 730.746094 890.707031 712.679688 870.246094 C 694.792969 847.890625 677.722656 828.382812 660.835938 805.941406 C 643.8125 784.097656 627.707031 760.5625 610.109375 737.148438 C 593.367188 713.445312 574.386719 688.332031 569.53125 657.164062 C 564.804688 626.441406 581.257812 594.070312 635.183594 581.824219 C 661.382812 575.746094 696.019531 574.972656 732.457031 580.5 C 768.683594 585.972656 806.410156 597.277344 833.082031 613.421875 C 860.246094 629.609375 872.695312 649.277344 872.535156 673.308594 C 872.683594 697.222656 860.910156 726.652344 847.019531 758.148438 C 816.671875 822.613281 788.398438 886.816406 768.78125 900.046875 Z M 768.78125 900.046875 " fill-opacity="1" fill-rule="nonzero"/></g></g></g></g><g clip-path="url(#3fec62503c)"><g clip-path="url(#46f98339f2)"><g clip-path="url(#79025abcff)"><g clip-path="url(#e13604063e)"><path fill="#000000" d="M 489.128906 124.570312 C 473.835938 139.703125 455.507812 121.957031 437.230469 107.140625 C 418.832031 90.695312 401.535156 76.546875 383.972656 59.886719 C 366.378906 43.753906 349.320312 26.058594 331.015625 8.675781 C 313.390625 -9.074219 293.671875 -27.703125 285.058594 -53.429688 C 276.617188 -78.800781 285.914062 -108.519531 329.910156 -126.40625 C 351.265625 -135.207031 380.542969 -140.6875 412.257812 -141.082031 C 443.785156 -141.492188 477.425781 -137.171875 502.386719 -127.210938 C 527.769531 -117.28125 541.167969 -102.355469 544.496094 -81.972656 C 548.066406 -61.734375 542.316406 -35.164062 535.066406 -6.542969 C 518.605469 52.296875 503.867188 110.632812 489.128906 124.570312 Z M 489.128906 124.570312 " fill-opacity="1" fill-rule="nonzero"/></g></g></g></g><g clip-path="url(#161df31309)"><g clip-path="url(#86df561871)"><g clip-path="url(#6c02aa80e6)"><g clip-path="url(#4ca5f86fad)"><path fill="#000000" d="M 601.175781 278.957031 C 585.878906 294.089844 567.550781 276.34375 549.277344 261.523438 C 530.875 245.082031 513.578125 230.933594 496.015625 214.269531 C 478.421875 198.136719 461.363281 180.445312 443.058594 163.0625 C 425.4375 145.3125 405.714844 126.683594 397.101562 100.953125 C 388.660156 75.585938 397.957031 45.867188 441.953125 27.980469 C 463.308594 19.179688 492.585938 13.695312 524.300781 13.304688 C 555.828125 12.890625 589.472656 17.214844 614.429688 27.175781 C 639.8125 37.101562 653.210938 52.027344 656.539062 72.414062 C 660.109375 92.652344 654.359375 119.222656 647.113281 147.839844 C 630.652344 206.683594 615.914062 265.015625 601.175781 278.957031 Z M 601.175781 278.957031 " fill-opacity="1" fill-rule="nonzero"/></g></g></g></g><g clip-path="url(#c0c6ab3e1c)"><g clip-path="url(#550aa98c83)"><g clip-path="url(#66a9e6f603)"><g clip-path="url(#be4f34e99e)"><path fill="#000000" d="M 660.058594 464.015625 C 644.761719 479.152344 626.433594 461.40625 608.160156 446.585938 C 589.757812 430.140625 572.460938 415.992188 554.902344 399.332031 C 537.304688 383.199219 520.246094 365.507812 501.941406 348.121094 C 484.320312 330.371094 464.597656 311.742188 455.984375 286.015625 C 447.542969 260.644531 456.839844 230.925781 500.835938 213.039062 C 522.191406 204.238281 551.46875 198.757812 583.183594 198.363281 C 614.710938 197.953125 648.355469 202.273438 673.3125 212.234375 C 698.695312 222.164062 712.09375 237.089844 715.421875 257.472656 C 718.992188 277.710938 713.242188 304.28125 705.996094 332.902344 C 689.535156 391.742188 674.796875 450.078125 660.058594 464.015625 Z M 660.058594 464.015625 " fill-opacity="1" fill-rule="nonzero"/></g></g></g></g><g clip-path="url(#b60a340cb1)"><g clip-path="url(#d1c6e970b1)"><g clip-path="url(#887dd95636)"><g clip-path="url(#92e975e28d)"><path fill="#000000" d="M 630.527344 603.289062 C 615.234375 618.425781 596.90625 600.679688 578.628906 585.859375 C 560.230469 569.417969 542.933594 555.269531 525.371094 538.605469 C 507.777344 522.472656 490.71875 504.78125 472.414062 487.394531 C 454.789062 469.644531 435.066406 451.015625 426.453125 425.289062 C 418.015625 399.917969 427.3125 370.199219 471.304688 352.3125 C 492.664062 343.515625 521.9375 338.03125 553.65625 337.636719 C 585.183594 337.226562 618.824219 341.546875 643.785156 351.507812 C 669.167969 361.4375 682.566406 376.363281 685.894531 396.746094 C 689.464844 416.984375 683.714844 443.558594 676.464844 472.175781 C 660.003906 531.015625 645.265625 589.351562 630.527344 603.289062 Z M 630.527344 603.289062 " fill-opacity="1" fill-rule="nonzero"/></g></g></g></g><g clip-path="url(#cb482b2644)"><g clip-path="url(#ebffd4e891)"><g clip-path="url(#3bda27ed64)"><g clip-path="url(#114142da10)"><path fill="#000000" d="M 633.808594 740.046875 C 618.511719 755.179688 600.183594 737.433594 581.90625 722.613281 C 563.507812 706.171875 546.210938 692.023438 528.648438 675.359375 C 511.054688 659.226562 493.996094 641.535156 475.691406 624.152344 C 458.066406 606.402344 438.347656 587.773438 429.734375 562.042969 C 421.292969 536.675781 430.589844 506.957031 474.585938 489.070312 C 495.941406 480.269531 525.21875 474.785156 556.933594 474.394531 C 588.460938 473.980469 622.101562 478.304688 647.0625 488.265625 C 672.445312 498.191406 685.84375 513.117188 689.171875 533.503906 C 692.742188 553.742188 686.992188 580.3125 679.742188 608.929688 C 663.28125 667.773438 648.546875 726.105469 633.808594 740.046875 Z M 633.808594 740.046875 " fill-opacity="1" fill-rule="nonzero"/></g></g></g></g></svg>