<svg xmlns="http://www.w3.org/2000/svg" xmlns:xlink="http://www.w3.org/1999/xlink" width="800" zoomAndPan="magnify" viewBox="0 0 600 599.999999" height="800" preserveAspectRatio="xMidYMid meet" version="1.0"><defs><clipPath id="3dbfe7f399"><path d="M 128 0 L 556 0 L 556 600 L 128 600 Z M 128 0 " clip-rule="nonzero"/></clipPath><clipPath id="f51048c2b0"><path d="M 90.527344 2.957031 L 491.273438 -85.992188 L 640.957031 588.359375 L 240.207031 677.308594 Z M 90.527344 2.957031 " clip-rule="nonzero"/></clipPath><clipPath id="cbdfa64d84"><path d="M 90.527344 2.957031 L 491.273438 -85.992188 L 640.957031 588.359375 L 240.207031 677.308594 Z M 90.527344 2.957031 " clip-rule="nonzero"/></clipPath><clipPath id="c390cd1004"><path d="M 366 16 L 575 16 L 575 241 L 366 241 Z M 366 16 " clip-rule="nonzero"/></clipPath><clipPath id="8c4b547c9f"><path d="M 448.082031 -53.386719 L 626.203125 106.039062 L 495.363281 252.222656 L 317.246094 92.796875 Z M 448.082031 -53.386719 " clip-rule="nonzero"/></clipPath><clipPath id="855e0135b7"><path d="M 448.082031 -53.386719 L 626.203125 106.039062 L 495.363281 252.222656 L 317.246094 92.796875 Z M 448.082031 -53.386719 " clip-rule="nonzero"/></clipPath><clipPath id="fd645bcabf"><path d="M 448.082031 -53.386719 L 626.203125 106.039062 L 495.363281 252.222656 L 317.246094 92.796875 Z M 448.082031 -53.386719 " clip-rule="nonzero"/></clipPath><clipPath id="83b5517f66"><path d="M 434 152 L 600 152 L 600 377 L 434 377 Z M 434 152 " clip-rule="nonzero"/></clipPath><clipPath id="4012c7a8bf"><path d="M 515.816406 82.578125 L 693.9375 242.003906 L 563.097656 388.1875 L 384.976562 228.761719 Z M 515.816406 82.578125 " clip-rule="nonzero"/></clipPath><clipPath id="c4f13e58a2"><path d="M 515.816406 82.578125 L 693.9375 242.003906 L 563.097656 388.1875 L 384.976562 228.761719 Z M 515.816406 82.578125 " clip-rule="nonzero"/></clipPath><clipPath id="05b66fb6ec"><path d="M 515.816406 82.578125 L 693.9375 242.003906 L 563.097656 388.1875 L 384.976562 228.761719 Z M 515.816406 82.578125 " clip-rule="nonzero"/></clipPath><clipPath id="3fe27c89d3"><path d="M 456 305 L 600 305 L 600 530 L 456 530 Z M 456 305 " clip-rule="nonzero"/></clipPath><clipPath id="1f2f9e532d"><path d="M 537.769531 235.65625 L 715.886719 395.082031 L 585.050781 541.265625 L 406.929688 381.839844 Z M 537.769531 235.65625 " clip-rule="nonzero"/></clipPath><clipPath id="e802ac38f1"><path d="M 537.769531 235.65625 L 715.886719 395.082031 L 585.050781 541.265625 L 406.929688 381.839844 Z M 537.769531 235.65625 " clip-rule="nonzero"/></clipPath><clipPath id="ce9945f49d"><path d="M 537.769531 235.65625 L 715.886719 395.082031 L 585.050781 541.265625 L 406.929688 381.839844 Z M 537.769531 235.65625 " clip-rule="nonzero"/></clipPath><clipPath id="80b4d79f94"><path d="M 415 410 L 600 410 L 600 600 L 415 600 Z M 415 410 " clip-rule="nonzero"/></clipPath><clipPath id="435b4aa2d5"><path d="M 496.289062 341.167969 L 674.410156 500.59375 L 543.570312 646.777344 L 365.453125 487.347656 Z M 496.289062 341.167969 " clip-rule="nonzero"/></clipPath><clipPath id="55ed153bfc"><path d="M 496.289062 341.167969 L 674.410156 500.59375 L 543.570312 646.777344 L 365.453125 487.347656 Z M 496.289062 341.167969 " clip-rule="nonzero"/></clipPath><clipPath id="0116590dff"><path d="M 496.289062 341.167969 L 674.410156 500.59375 L 543.570312 646.777344 L 365.453125 487.347656 Z M 496.289062 341.167969 " clip-rule="nonzero"/></clipPath><clipPath id="b264c93020"><path d="M 399 518 L 600 518 L 600 600 L 399 600 Z M 399 518 " clip-rule="nonzero"/></clipPath><clipPath id="a6f4a9288a"><path d="M 480.914062 449.007812 L 659.03125 608.433594 L 528.191406 754.613281 L 350.074219 595.1875 Z M 480.914062 449.007812 " clip-rule="nonzero"/></clipPath><clipPath id="c56e02da5f"><path d="M 480.914062 449.007812 L 659.03125 608.433594 L 528.191406 754.613281 L 350.074219 595.1875 Z M 480.914062 449.007812 " clip-rule="nonzero"/></clipPath><clipPath id="afadf0c391"><path d="M 480.914062 449.007812 L 659.03125 608.433594 L 528.191406 754.613281 L 350.074219 595.1875 Z M 480.914062 449.007812 " clip-rule="nonzero"/></clipPath></defs><g clip-path="url(#3dbfe7f399)"><g clip-path="url(#f51048c2b0)"><g clip-path="url(#cbdfa64d84)"><path fill="#ffb64c" d="M 241.363281 510.410156 L 215.195312 497.308594 C 257.871094 412.042969 256.273438 331.8125 210.640625 258.953125 C 176.1875 204.078125 129.015625 174.464844 128.523438 174.148438 L 143.871094 149.292969 C 146.003906 150.652344 197.308594 183.015625 235.253906 243.46875 C 270.738281 299.808594 300.503906 391.996094 241.363281 510.410156 Z M 361.222656 171.472656 C 306.53125 87.640625 231.503906 46.851562 228.3125 45.160156 L 209.488281 80.390625 C 210.144531 80.808594 279.765625 118.84375 328.726562 194.636719 C 393.542969 294.851562 393.753906 411.382812 329.375 541.121094 L 365.035156 558.890625 C 453.953125 379.671875 412.035156 249.25 361.222656 171.472656 Z M 494.253906 128.113281 C 429.796875 14.269531 337.964844 -47.628906 334.160156 -50.167969 L 304.8125 -5.832031 C 305.632812 -5.308594 389.851562 51.503906 448.054688 154.316406 C 525.5 291.105469 520.8125 440.199219 433.878906 597.242188 L 480.347656 623.058594 C 600.449219 405.867188 554.277344 234.050781 494.253906 128.113281 Z M 494.253906 128.113281 " fill-opacity="1" fill-rule="nonzero"/></g></g></g><path fill="#000000" d="M 500.089844 82.855469 C 496.261719 99.582031 476.457031 95.441406 457.925781 93.253906 C 438.621094 90.023438 421.03125 87.871094 402.195312 84.136719 C 383.566406 80.769531 364.632812 76.125 344.992188 72.222656 C 325.65625 67.78125 304.539062 63.640625 287.855469 49.980469 C 271.4375 36.484375 265.0625 12.492188 286.949219 -18.332031 C 297.523438 -33.375 314.8125 -49.558594 335.894531 -63.355469 C 356.84375 -77.085938 381.214844 -88.527344 402.164062 -92.464844 C 423.378906 -96.601562 438.6875 -92.261719 449.566406 -79.945312 C 460.542969 -67.832031 467.960938 -47.472656 475.246094 -25.09375 C 489.179688 21.578125 504.050781 67.175781 500.089844 82.855469 Z M 500.089844 82.855469 " fill-opacity="1" fill-rule="nonzero"/><g clip-path="url(#c390cd1004)"><g clip-path="url(#8c4b547c9f)"><g clip-path="url(#855e0135b7)"><g clip-path="url(#fd645bcabf)"><path fill="#000000" d="M 503.546875 237.097656 C 489.539062 247.007812 477.542969 230.714844 465.191406 216.726562 C 452.964844 201.445312 441.292969 188.109375 429.75 172.765625 C 418.113281 157.832031 407.101562 141.742188 395.070312 125.738281 C 383.625 109.53125 370.652344 92.363281 367.332031 71.058594 C 364.097656 50.054688 375.347656 27.921875 412.214844 19.550781 C 430.125 15.398438 453.800781 14.867188 478.710938 18.648438 C 503.476562 22.386719 529.269531 30.117188 547.503906 41.152344 C 566.074219 52.21875 574.585938 65.664062 574.476562 82.09375 C 574.574219 98.441406 566.527344 118.558594 557.03125 140.09375 C 536.285156 184.160156 516.957031 228.054688 503.546875 237.097656 Z M 503.546875 237.097656 " fill-opacity="1" fill-rule="nonzero"/></g></g></g></g><g clip-path="url(#83b5517f66)"><g clip-path="url(#4012c7a8bf)"><g clip-path="url(#c4f13e58a2)"><g clip-path="url(#05b66fb6ec)"><path fill="#000000" d="M 571.277344 373.0625 C 557.273438 382.972656 545.273438 366.679688 532.925781 352.691406 C 520.695312 337.410156 509.023438 324.074219 497.484375 308.730469 C 485.84375 293.796875 474.832031 277.707031 462.804688 261.703125 C 451.355469 245.496094 438.382812 228.328125 435.0625 207.023438 C 431.832031 186.019531 443.078125 163.886719 479.945312 155.515625 C 497.855469 151.363281 521.535156 150.832031 546.445312 154.613281 C 571.210938 158.351562 597 166.082031 615.234375 177.117188 C 633.804688 188.183594 642.316406 201.628906 642.207031 218.058594 C 642.308594 234.40625 634.257812 254.523438 624.761719 276.058594 C 604.015625 320.125 584.6875 364.019531 571.277344 373.0625 Z M 571.277344 373.0625 " fill-opacity="1" fill-rule="nonzero"/></g></g></g></g><g clip-path="url(#3fe27c89d3)"><g clip-path="url(#1f2f9e532d)"><g clip-path="url(#e802ac38f1)"><g clip-path="url(#ce9945f49d)"><path fill="#000000" d="M 593.230469 526.140625 C 579.222656 536.050781 567.226562 519.757812 554.875 505.769531 C 542.648438 490.488281 530.976562 477.152344 519.433594 461.808594 C 507.796875 446.875 496.785156 430.789062 484.753906 414.78125 C 473.308594 398.574219 460.335938 381.410156 457.015625 360.101562 C 453.78125 339.097656 465.03125 316.964844 501.898438 308.597656 C 519.808594 304.441406 543.484375 303.910156 568.394531 307.691406 C 593.160156 311.429688 618.953125 319.160156 637.1875 330.199219 C 655.757812 341.261719 664.269531 354.707031 664.160156 371.136719 C 664.257812 387.488281 656.210938 407.605469 646.714844 429.136719 C 625.96875 473.207031 606.640625 517.097656 593.230469 526.140625 Z M 593.230469 526.140625 " fill-opacity="1" fill-rule="nonzero"/></g></g></g></g><g clip-path="url(#80b4d79f94)"><g clip-path="url(#435b4aa2d5)"><g clip-path="url(#55ed153bfc)"><g clip-path="url(#0116590dff)"><path fill="#000000" d="M 551.753906 631.652344 C 537.746094 641.5625 525.75 625.269531 513.398438 611.28125 C 501.171875 596 489.5 582.664062 477.957031 567.320312 C 466.320312 552.386719 455.308594 536.296875 443.277344 520.292969 C 431.832031 504.085938 418.859375 486.917969 415.539062 465.613281 C 412.304688 444.609375 423.554688 422.476562 460.421875 414.105469 C 478.332031 409.953125 502.007812 409.421875 526.917969 413.199219 C 551.683594 416.941406 577.476562 424.671875 595.710938 435.707031 C 614.28125 446.773438 622.792969 460.21875 622.683594 476.648438 C 622.78125 492.996094 614.734375 513.113281 605.238281 534.648438 C 584.492188 578.714844 565.164062 622.609375 551.753906 631.652344 Z M 551.753906 631.652344 " fill-opacity="1" fill-rule="nonzero"/></g></g></g></g><g clip-path="url(#b264c93020)"><g clip-path="url(#a6f4a9288a)"><g clip-path="url(#c56e02da5f)"><g clip-path="url(#afadf0c391)"><path fill="#000000" d="M 536.375 739.492188 C 522.367188 749.402344 510.371094 733.105469 498.019531 719.117188 C 485.792969 703.839844 474.121094 690.5 462.578125 675.15625 C 450.941406 660.226562 439.929688 644.136719 427.898438 628.128906 C 416.453125 611.925781 403.480469 594.757812 400.160156 573.449219 C 396.925781 552.449219 408.175781 530.316406 445.042969 521.945312 C 462.953125 517.789062 486.628906 517.261719 511.539062 521.039062 C 536.304688 524.78125 562.097656 532.511719 580.332031 543.546875 C 598.902344 554.613281 607.414062 568.058594 607.304688 584.488281 C 607.402344 600.835938 599.355469 620.953125 589.859375 642.484375 C 569.113281 686.554688 549.785156 730.449219 536.375 739.492188 Z M 536.375 739.492188 " fill-opacity="1" fill-rule="nonzero"/></g></g></g></g></svg>