<svg xmlns="http://www.w3.org/2000/svg" xmlns:xlink="http://www.w3.org/1999/xlink" width="800" zoomAndPan="magnify" viewBox="0 0 600 599.999999" height="800" preserveAspectRatio="xMidYMid meet" version="1.0"><defs><clipPath id="a8d7272c87"><path d="M 110 24 L 451 24 L 451 561 L 110 561 Z M 110 24 " clip-rule="nonzero"/></clipPath><clipPath id="8c56a81408"><path d="M 80.65625 66.96875 L 399.886719 -3.886719 L 519.011719 532.800781 L 199.78125 603.65625 Z M 80.65625 66.96875 " clip-rule="nonzero"/></clipPath><clipPath id="f4c8f296ba"><path d="M 80.65625 66.96875 L 399.886719 -3.886719 L 519.011719 532.800781 L 199.78125 603.65625 Z M 80.65625 66.96875 " clip-rule="nonzero"/></clipPath></defs><g clip-path="url(#a8d7272c87)"><g clip-path="url(#8c56a81408)"><g clip-path="url(#f4c8f296ba)"><path fill="#ffb64c" d="M 200.726562 470.820312 L 179.882812 460.394531 C 213.890625 392.53125 212.628906 328.675781 176.292969 270.695312 C 148.859375 227.027344 111.289062 203.464844 110.898438 203.214844 L 123.125 183.429688 C 124.824219 184.511719 165.6875 210.261719 195.902344 258.367188 C 224.15625 303.203125 247.851562 376.570312 200.726562 470.820312 Z M 296.253906 201.050781 C 252.699219 134.335938 192.945312 101.886719 190.402344 100.542969 L 175.402344 128.582031 C 175.925781 128.914062 231.375 159.175781 270.367188 219.488281 C 321.976562 299.238281 322.128906 391.980469 270.824219 495.246094 L 299.230469 509.386719 C 370.085938 366.734375 336.71875 262.941406 296.253906 201.050781 Z M 402.226562 166.519531 C 350.902344 75.925781 277.761719 26.675781 274.730469 24.652344 L 251.347656 59.945312 C 252 60.359375 319.078125 105.5625 365.421875 187.382812 C 427.089844 296.238281 423.332031 414.894531 354.0625 539.898438 L 391.070312 560.4375 C 486.773438 387.5625 450.019531 250.824219 402.226562 166.519531 Z M 402.226562 166.519531 " fill-opacity="1" fill-rule="nonzero"/></g></g></g></svg>